<?xml version="1.0" encoding="iso-8859-1"?>
<!-- Uploaded to: SVG Repo, www.svgrepo.com, Generator: SVG Repo Mixer Tools -->
<svg fill="#000000" height="400px" width="400px" version="1.1" id="Layer_1" xmlns="http://www.w3.org/2000/svg" xmlns:xlink="http://www.w3.org/1999/xlink" 
	 viewBox="0 0 512 512" xml:space="preserve">
<g>
	<g>
		<path d="M501.801,219.58h-29.578c-5.633,0-10.199,4.566-10.199,10.199s4.566,10.199,10.199,10.199h29.578
			c5.633,0,10.199-4.566,10.199-10.199S507.434,219.58,501.801,219.58z"/>
	</g>
</g>
<g>
	<g>
		<path d="M424.287,219.58H228.503v-60.828h23.159c16.451,0,29.836-13.384,29.836-29.837V73.791
			c0-12.495-10.166-22.661-22.661-22.661c-12.495,0-22.661,10.166-22.661,22.661v38.405c0,0.68-0.554,1.234-1.234,1.234h-6.44
			V74.579c0-17.104-13.915-31.019-31.019-31.019s-31.019,13.915-31.019,31.019v79.545h-8.333c-0.68,0-1.234-0.554-1.234-1.234
			v-38.405c0-12.495-10.166-22.661-22.661-22.661s-22.661,10.166-22.661,22.661v55.124c0,16.452,13.384,29.837,29.836,29.837h25.052
			v20.135H10.199C4.566,219.58,0,224.146,0,229.779s4.566,10.199,10.199,10.199h414.088c5.633,0,10.199-4.566,10.199-10.199
			S429.92,219.58,424.287,219.58z M228.503,133.829h6.44c11.928,0,21.633-9.705,21.633-21.632V73.791
			c0-1.247,1.015-2.262,2.262-2.262s2.262,1.015,2.262,2.262v55.124c0,5.205-4.234,9.438-9.437,9.438h-23.159V133.829z
			 M166.465,179.046h-25.052c-5.205,0-9.437-4.234-9.437-9.438v-55.124c0-1.247,1.015-2.262,2.262-2.262s2.262,1.015,2.262,2.262
			v38.405c0,11.928,9.705,21.633,21.633,21.633h8.333V179.046z M208.105,219.58h-21.241V74.579h0c0-5.856,4.764-10.62,10.62-10.62
			s10.62,4.764,10.62,10.62V219.58z"/>
	</g>
</g>
<g>
	<g>
		<path d="M179.926,351.753l-18.359-28.558c-1.479-2.3-3.819-3.909-6.496-4.468c-2.677-0.561-5.466-0.019-7.741,1.498
			l-39.777,26.518c-2.837,1.891-4.542,5.076-4.542,8.486v9.179H88.733c-5.633,0-10.199,4.566-10.199,10.199
			c0,5.633,4.566,10.199,10.199,10.199h82.614c5.633,0,10.199-4.566,10.199-10.199v-17.339
			C181.546,355.314,180.984,353.399,179.926,351.753z M161.147,364.408H123.41v-3.721l26.607-17.737l11.13,17.314V364.408z"/>
	</g>
</g>
<g>
	<g>
		<path d="M218.263,364.408h-13.259c-5.633,0-10.199,4.566-10.199,10.199c0,5.633,4.566,10.199,10.199,10.199h13.259
			c5.633,0,10.199-4.566,10.199-10.199C228.462,368.975,223.896,364.408,218.263,364.408z"/>
	</g>
</g>
<g>
	<g>
		<path d="M378.027,417.583l-30.598-5.1c-2.371-0.397-4.808,0.06-6.876,1.286l-27.538,16.319c-3.1,1.837-5,5.172-5,8.774v9.179
			h-14.279c-5.633,0-10.199,4.566-10.199,10.199c0,5.633,4.566,10.199,10.199,10.199h82.614v0c5.633,0,10.199-4.566,10.199-10.199
			v-30.598C386.55,422.658,382.945,418.403,378.027,417.583z M366.151,448.042h-37.737v-3.368l19.335-11.458l18.402,3.067V448.042z"
			/>
	</g>
</g>
<g>
	<g>
		<path d="M423.267,448.042h-13.259c-5.633,0-10.199,4.566-10.199,10.199c0,5.633,4.566,10.199,10.199,10.199h13.259
			c5.633,0,10.199-4.566,10.199-10.199C433.466,452.608,428.9,448.042,423.267,448.042z"/>
	</g>
</g>
<g>
	<g>
		<path d="M406.948,289.954h-77.514c-5.633,0-10.199,4.566-10.199,10.199c0,5.633,4.566,10.199,10.199,10.199h77.514
			c5.633,0,10.199-4.566,10.199-10.199C417.147,294.52,412.581,289.954,406.948,289.954z"/>
	</g>
</g>
<g>
	<g>
		<path d="M291.697,289.954h-18.359c-5.633,0-10.199,4.566-10.199,10.199c0,5.633,4.566,10.199,10.199,10.199h18.359
			c5.633,0,10.199-4.566,10.199-10.199C301.896,294.52,297.33,289.954,291.697,289.954z"/>
	</g>
</g>
<g>
	<g>
		<path d="M444.685,48.233c-28.682,0-52.016,23.334-52.016,52.016c0,28.682,23.334,52.016,52.016,52.016
			c28.682,0,52.016-23.334,52.016-52.016C496.701,71.567,473.367,48.233,444.685,48.233z M444.685,131.866
			c-17.434,0-31.618-14.184-31.618-31.618c0-17.433,14.184-31.617,31.618-31.617c17.433,0,31.617,14.184,31.617,31.617
			C476.303,117.682,462.119,131.866,444.685,131.866z"/>
	</g>
</g>
<g>
	<g>
		<path d="M392.742,147.093c-3.983-3.982-10.441-3.982-14.425,0l-24.987,24.988c-3.983,3.983-3.983,10.441,0,14.425
			c1.992,1.991,4.602,2.987,7.212,2.987c2.61,0,5.221-0.996,7.212-2.987l24.988-24.988
			C396.725,157.535,396.725,151.077,392.742,147.093z"/>
	</g>
</g>
<g>
	<g>
		<path d="M441.625,160.424c-5.633,0-10.199,4.566-10.199,10.199v17.339c0,5.633,4.566,10.199,10.199,10.199
			c5.633,0,10.199-4.566,10.199-10.199v-17.339C451.825,164.99,447.259,160.424,441.625,160.424z"/>
	</g>
</g>
<g>
	<g>
		<path d="M373.291,89.03h-21.418c-5.633,0-10.199,4.566-10.199,10.199c0,5.633,4.566,10.199,10.199,10.199h21.418
			c5.633,0,10.199-4.566,10.199-10.199C383.49,93.596,378.924,89.03,373.291,89.03z"/>
	</g>
</g>
</svg>