<!DOCTYPE svg PUBLIC "-//W3C//DTD SVG 1.1//EN" "http://www.w3.org/Graphics/SVG/1.1/DTD/svg11.dtd">

<!-- Uploaded to: SVG Repo, www.svgrepo.com, Transformed by: SVG Repo Mixer Tools -->
<svg fill="#ffffff" height="80px" width="80px" version="1.1" id="Capa_1" xmlns="http://www.w3.org/2000/svg" xmlns:xlink="http://www.w3.org/1999/xlink" viewBox="-66.56 -66.56 645.12 645.12" xml:space="preserve" stroke="#ffffff" stroke-width="0.00512">

<g id="SVGRepo_bgCarrier" stroke-width="0"/>

<g id="SVGRepo_tracerCarrier" stroke-linecap="round" stroke-linejoin="round" stroke="#000000" stroke-width="93.184"> <g> <path d="M256,128c35.375,0,64-28.625,64-64S291.375,0,256,0s-64,28.625-64,64S220.625,128,256,128z"/> <path d="M256,160c-71.781,0-128,42.156-128,96v64c0,17.688,14.313,32,32,32h32v128c0,17.688,14.313,32,32,32h64 c17.688,0,32-14.313,32-32V352h32c17.688,0,32-14.313,32-32v-64C384,202.156,327.781,160,256,160z"/> </g> </g>

<g id="SVGRepo_iconCarrier"> <g> <path d="M256,128c35.375,0,64-28.625,64-64S291.375,0,256,0s-64,28.625-64,64S220.625,128,256,128z"/> <path d="M256,160c-71.781,0-128,42.156-128,96v64c0,17.688,14.313,32,32,32h32v128c0,17.688,14.313,32,32,32h64 c17.688,0,32-14.313,32-32V352h32c17.688,0,32-14.313,32-32v-64C384,202.156,327.781,160,256,160z"/> </g> </g>

</svg>