<svg xmlns="http://www.w3.org/2000/svg" viewBox="0 0 160 133" width="950" height="850"><defs><linearGradient id="a" x1="69.58" x2="99.6" y1="98.22" y2="49.31" gradientUnits="userSpaceOnUse"><stop offset="0" stop-color="#cfcfcf" class="stopColorcccfd3 svgShape"></stop><stop offset="1" stop-color="#b4b4b4" stop-opacity="0" class="stopColorb2b1b8 svgShape"></stop></linearGradient></defs><g data-name="Layer 1" fill="#82b882" class="color000 svgShape"><path d="M21.67,83.52l54.09,30.75a2.09,2.09,0,0,0,2.07,0l62.81-35.42a2.1,2.1,0,0,0,0-3.64L87.78,44.67a2.07,2.07,0,0,0-2.06,0l-64,35.2A2.11,2.11,0,0,0,21.67,83.52Z" style="mix-blend-mode:multiply" fill="url(#a)"></path><path fill="#383838" d="M115.34,90.57a1.84,1.84,0,0,1-1.08,1.5l-36.44,21a5.63,5.63,0,0,1-5.13,0L19.44,82.23a1.8,1.8,0,0,1-1.05-1.48v1.88a1.8,1.8,0,0,0,1.05,1.47l53.25,30.83a5.66,5.66,0,0,0,5.13,0l36.45-21a1.82,1.82,0,0,0,1.07-1.5Z" class="color383838 svgShape"></path><path fill="#c8c8c8" d="M114.28,89.1,61,58.27a5.66,5.66,0,0,0-5.13,0l-36.44,21c-1.43.82-1.44,2.15,0,3l53.25,30.82a5.63,5.63,0,0,0,5.13,0l36.44-21C115.69,91.25,115.69,89.92,114.28,89.1Z" class="colorc1c8cc svgShape"></path><path fill="#383838" d="M75.26,113.76a5.25,5.25,0,0,1-2.61-.63L19.39,82.31a1.66,1.66,0,0,1,0-3.13l36.44-21a5.7,5.7,0,0,1,5.21,0L114.33,89a1.88,1.88,0,0,1,1.1,1.56,1.93,1.93,0,0,1-1.12,1.57l-36.45,21A5.37,5.37,0,0,1,75.26,113.76Zm-16.8-56a5.12,5.12,0,0,0-2.51.6l-36.45,21a1.48,1.48,0,0,0,0,2.81L72.74,113a5.54,5.54,0,0,0,5,0l36.45-21a1.73,1.73,0,0,0,1-1.41,1.7,1.7,0,0,0-1-1.4L61,58.35A5,5,0,0,0,58.46,57.74Z" class="color383838 svgShape"></path><polygon fill="#e1e1e1" points="111.91 88.48 71.57 111.72 19.28 81.4 59.61 58.16 111.91 88.48" class="colordbe1e7 svgShape"></polygon><path fill="#383838" d="M71.57 111.82l0 0L19.1 81.4l.13-.08L59.61 58.06l0 0 52.43 30.4-.14.08zM19.45 81.4l52.12 30.22 40.16-23.14L59.61 58.26zM97 100L96 99.36a2.24 2.24 0 00-2 .08l-2 1.09a1.15 1.15 0 00-.45.42.7.7 0 00.31 1l1.07.61a2.23 2.23 0 002-.07l1.95-1.09a1.25 1.25 0 00.45-.43A.69.69 0 0097 100z" class="color383838 svgShape"></path><path fill="#7c8ba1" d="M97,100.34,96,99.72a2.27,2.27,0,0,0-2,.08l-2,1.09a1.15,1.15,0,0,0-.45.42.73.73,0,0,0-.07.19.88.88,0,0,0,.38.44l1.07.61a2.23,2.23,0,0,0,2-.07l1.95-1.09a1.25,1.25,0,0,0,.45-.43.67.67,0,0,0,.07-.18A.82.82,0,0,0,97,100.34Z" class="color969a9f svgShape"></path><path fill="#383838" d="M93.79 102.85a1.87 1.87 0 01-.94-.22L91.78 102a.88.88 0 01-.42-.48v-.08a.67.67 0 01.07-.18 1.42 1.42 0 01.48-.46l2-1.09A2.31 2.31 0 0196 99.65l1.07.61a.91.91 0 01.42.49v.07a.89.89 0 01-.07.19 1.31 1.31 0 01-.48.45l-2 1.1A2.48 2.48 0 0193.79 102.85zm-2.25-1.36a.73.73 0 00.33.37l1.07.62a2.12 2.12 0 001.94-.08l2-1.09a1.11 1.11 0 00.41-.39.34.34 0 000-.14.71.71 0 00-.33-.36L95.9 99.8a2.15 2.15 0 00-1.94.07L92 101a1.14 1.14 0 00-.42.39.5.5 0 000 .13zM41.75 67.25L37 70c-.15.08-.17.21 0 .29h0a.59.59 0 00.5 0l4.77-2.76c.15-.08.16-.21 0-.29h0A.56.56 0 0041.75 67.25z" class="color383838 svgShape"></path><path fill="#ffffff" d="M26.49,87.25l-3.14-1.81c-.15-.09-.27,0-.27.15v.09a.61.61,0,0,0,.27.47L26.49,88c.15.08.27,0,.27-.16v-.08A.59.59,0,0,0,26.49,87.25Z" class="colorfff svgShape"></path><path fill="#383838" d="M26.93 87.45l-.09-.17a.52.52 0 00-.16-.14l-3.13-1.82a.19.19 0 00-.19 0l-.2.11a.19.19 0 01.19 0l3.14 1.81a.66.66 0 01.15.14.76.76 0 01.09.18.4.4 0 010 .15v.08a.19.19 0 01-.08.18l.19-.11a.19.19 0 00.08-.18v-.08A1 1 0 0026.93 87.45zM30 89.1a1.06 1.06 0 00-.15-.15l-1.49-.86a.22.22 0 00-.19 0l-.2.12a.17.17 0 01.19 0l1.49.85a.54.54 0 01.15.15.56.56 0 01.09.17.4.4 0 010 .15v.09a.19.19 0 01-.08.17l.19-.11a.19.19 0 00.08-.18v-.08a.77.77 0 000-.15A.91.91 0 0030 89.1z" class="color383838 svgShape"></path><path fill="#ffffff" d="M29.76,89.9a.37.37,0,0,1-.17-.05L28.11,89a.68.68,0,0,1-.32-.54v-.09a.25.25,0,0,1,.24-.28.37.37,0,0,1,.17,0l1.48.86a.68.68,0,0,1,.32.54v.09A.25.25,0,0,1,29.76,89.9Z" class="colorfff svgShape"></path><path fill="#383838" d="M28,88.17a.19.19,0,0,1,.12,0l1.49.85a.61.61,0,0,1,.27.47v.09c0,.12-.06.19-.15.19a.19.19,0,0,1-.12,0l-1.49-.86a.57.57,0,0,1-.27-.46v-.09c0-.12.06-.19.15-.19ZM28,88a.34.34,0,0,0-.33.37v.09a.79.79,0,0,0,.36.62l1.49.86a.42.42,0,0,0,.21.06.34.34,0,0,0,.33-.37v-.09a.78.78,0,0,0-.36-.62l-1.49-.86A.42.42,0,0,0,28,88Z" class="color383838 svgShape"></path><polygon fill="#c8c8c8" points="61.79 32.79 61.79 18.12 49.63 25.1 49.63 39.54 61.79 32.79" class="colorc1c8cc svgShape"></polygon><path fill="#383838" d="M49.53,39.72V25l0,0L61.89,18v14.9Zm.2-14.57V39.37l12-6.64V18.3Z" class="color383838 svgShape"></path><polygon fill="#7c8ba1" points="61.79 32.79 61.79 18.12 83.61 30.03 83.61 49.54 61.79 32.79" class="color969a9f svgShape"></polygon><path fill="#383838" d="M83.7,49.72l-.15-.11L61.7,32.84V18l.13.07L83.7,30Zm-21.82-17L83.52,49.36V30.08L61.88,18.27Z" class="color383838 svgShape"></path><polygon fill="#ffffff" points="51.27 70.87 47.58 68.74 47.58 25.1 51.27 27.23 51.27 70.87" class="colorfff svgShape"></polygon><path fill="#383838" d="M51.38,71.05l-3.9-2.25V24.92l3.9,2.25Zm-3.7-2.37,3.49,2V27.29l-3.49-2Z" class="color383838 svgShape"></path><polygon fill="#e1e1e1" points="69.96 36.64 82.57 29.44 83.61 30.03 69.96 37.83 66.02 35.56 67.05 34.96 69.96 36.64" class="colordbe1e7 svgShape"></polygon><path fill="#383838" d="M70,38l-4.14-2.39,1.23-.71L70,36.53l12.61-7.21,1.24.71-.15.08Zm-3.73-2.39L70,37.71,83.4,30l-.83-.47L70,36.76l-2.91-1.68Z" class="color383838 svgShape"></path><polygon fill="#e1e1e1" points="60.69 17.57 61.79 18.12 49.63 25.1 52.3 26.64 51.27 27.23 47.58 25.1 60.69 17.57" class="colordbe1e7 svgShape"></polygon><path fill="#383838" d="M51.27,27.35l-3.9-2.25,13.32-7.64,1.31.66-12.16,7,2.66,1.54ZM47.78,25.1l3.49,2,.83-.47L49.43,25.1l12.14-7-.88-.44Z" class="color383838 svgShape"></path><polygon fill="#ffffff" points="69.96 37.83 69.96 81.47 66.02 79.2 66.02 36.08 66.02 36.06 66.02 36.01 66.02 35.94 66.02 35.85 66.02 35.74 66.02 35.62 66.02 35.56 69.96 37.83" class="colorfff svgShape"></polygon><path fill="#383838" d="M70.06,81.65l-4.14-2.39V35.38l4.14,2.39Zm-3.94-2.51,3.74,2.16V37.89l-3.74-2.16Z" class="color383838 svgShape"></path><polygon fill="#e1e1e1" points="52.3 26.64 52.3 70.28 51.27 70.87 51.27 27.23 52.3 26.64" class="colordbe1e7 svgShape"></polygon><path fill="#383838" d="M51.17,71.05V27.17l1.23-.71V70.34Zm.21-43.76V70.7l.82-.48V26.81Z" class="color383838 svgShape"></path><polygon fill="#383838" points="66.35 35.37 66.02 35.56 66.02 36.08 52.3 28.34 51.62 27.95 51.58 27.91 51.55 27.84 51.54 27.77 51.55 27.68 51.58 27.59 51.62 27.5 51.68 27.41 51.74 27.34 51.82 27.29 51.89 27.26 51.95 27.26 52.01 27.27 52.3 27.44 66.35 35.37" class="color383838 svgShape"></polygon><polygon fill="#e1e1e1" points="69.96 37.83 69.96 81.47 83.61 73.67 83.61 30.03 69.96 37.83" class="colordbe1e7 svgShape"></polygon><path fill="#383838" d="M69.86 81.65V37.77l0 0 13.8-7.89V73.73l0 0zm.2-43.76V81.3L83.5 73.61V30.2zM66 36.08v.83l-13.9-8s-.1-.58-.13-.77a.63.63 0 01.06-.51.42.42 0 01.39-.13L66 35.18A.54.54 0 0066 36.08z" class="color383838 svgShape"></path><path fill="#f8cd7b" d="M66,36.88V78.57a5,5,0,0,1-3.7-3.47c-1-1.8-2.6-2.21-5.83-2.15-2.64,0-4.37-2.8-4.37-2.8V28.93Z" class="colorfeda39 svgShape"></path><path fill="#383838" d="M66.13,78.7l-.13,0a4.75,4.75,0,0,1-3.61-3.18l-.16-.34C61.3,73.5,59.9,73,56.5,73.05h-.07c-2.64,0-4.38-2.82-4.39-2.85l0,0V28.76l.15.08,14,8Zm-9-5.86c2.7,0,4.29.41,5.31,2.21a3.36,3.36,0,0,1,.16.36,4.6,4.6,0,0,0,3.35,3V36.94L52.23,29.11v41c.17.27,1.8,2.73,4.2,2.73h.67Z" class="color383838 svgShape"></path><polygon fill="#c8c8c8" points="87.61 48.13 87.61 33.46 75.45 40.43 75.45 54.88 87.61 48.13" class="colorc1c8cc svgShape"></polygon><path fill="#383838" d="M75.35,55.05V40.37l.05,0,12.31-7.06V48.19Zm.2-14.56V54.71l12-6.64V33.63Z" class="color383838 svgShape"></path><polygon fill="#7c8ba1" points="87.61 48.13 87.61 33.46 109.42 45.36 109.42 64.87 87.61 48.13" class="color969a9f svgShape"></polygon><path fill="#383838" d="M109.51,65.05l-.14-.11L87.52,48.17V33.31l.13.07,21.86,11.93Zm-21.82-17,21.64,16.61V45.41L87.69,33.61Z" class="color383838 svgShape"></path><polygon fill="#ffffff" points="77.09 86.21 73.39 84.07 73.39 40.43 77.09 42.56 77.09 86.21" class="colorfff svgShape"></polygon><path fill="#383838" d="M77.19,86.38l-3.9-2.25V40.25l3.9,2.26ZM73.5,84,77,86V42.62l-3.49-2Z" class="color383838 svgShape"></path><polygon fill="#e1e1e1" points="95.78 51.98 108.38 44.77 109.42 45.36 95.78 53.16 91.84 50.89 92.87 50.3 95.78 51.98" class="colordbe1e7 svgShape"></polygon><path fill="#383838" d="M95.78,53.28l-4.14-2.39,1.23-.71,2.91,1.68,12.6-7.2,1.25.7ZM92,50.89l3.74,2.16,13.44-7.69-.84-.47L95.78,52.1l-2.91-1.68Z" class="color383838 svgShape"></path><polygon fill="#e1e1e1" points="86.5 32.91 87.61 33.46 75.45 40.43 78.12 41.97 77.09 42.56 73.39 40.43 86.5 32.91" class="colordbe1e7 svgShape"></polygon><path fill="#383838" d="M77.09,42.68l-3.9-2.25L86.5,32.79l1.32.66-12.17,7L78.32,42ZM73.6,40.43l3.49,2,.82-.48-2.66-1.54,12.14-7L86.51,33Z" class="color383838 svgShape"></path><polygon fill="#ffffff" points="95.78 53.16 95.78 96.81 91.84 94.53 91.84 51.41 91.84 51.39 91.84 51.35 91.84 51.28 91.84 51.18 91.84 51.07 91.84 50.96 91.84 50.89 95.78 53.16" class="colorfff svgShape"></polygon><path fill="#383838" d="M95.88,97l-4.14-2.39V50.72l4.14,2.39Zm-3.94-2.5,3.73,2.15V53.22l-3.73-2.15Z" class="color383838 svgShape"></path><polygon fill="#e1e1e1" points="78.12 41.97 78.12 85.61 77.09 86.21 77.09 42.56 78.12 41.97" class="colordbe1e7 svgShape"></polygon><path fill="#383838" d="M77,86.38V42.51l1.23-.71V85.67Zm.2-43.76V86l.83-.47V42.15Z" class="color383838 svgShape"></path><polygon fill="#383838" points="92.17 50.7 91.84 50.89 91.84 51.41 78.12 43.67 77.44 43.28 77.39 43.24 77.36 43.18 77.36 43.1 77.37 43.01 77.39 42.92 77.44 42.83 77.5 42.75 77.56 42.68 77.63 42.63 77.7 42.59 77.77 42.59 77.83 42.61 78.12 42.78 92.17 50.7" class="color383838 svgShape"></polygon><polygon fill="#e1e1e1" points="95.78 53.16 95.78 96.81 109.42 89 109.42 45.36 95.78 53.16" class="colordbe1e7 svgShape"></polygon><path fill="#383838" d="M95.67 97V53.11l.06 0 13.79-7.89V89.06l0 0zm.21-43.76V96.63L109.32 89V45.54zM91.84 51.41v.83l-13.9-8-.13-.77a.65.65 0 01.06-.52.4.4 0 01.39-.12l13.58 7.65A.54.54 0 0091.84 51.41z" class="color383838 svgShape"></path><path fill="#f8cd7b" d="M91.84,52.21v41.7a5,5,0,0,1-3.7-3.47c-1-1.81-2.6-2.21-5.83-2.15-2.64,0-4.37-2.81-4.37-2.81V44.27Z" class="colorfeda39 svgShape"></path><path fill="#383838" d="M91.94,94l-.12,0a4.79,4.79,0,0,1-3.62-3.18,3.2,3.2,0,0,0-.15-.34c-.93-1.66-2.33-2.17-5.74-2.1h-.07c-2.63,0-4.37-2.82-4.39-2.85V44.09l.15.09,14,8Zm-9-5.85c2.69,0,4.29.4,5.3,2.21a3.21,3.21,0,0,1,.17.36,4.61,4.61,0,0,0,3.35,3V52.27L78,44.44v41c.17.26,1.81,2.73,4.2,2.73h.68Z" class="color383838 svgShape"></path><path fill="#f8cd7b" d="M30.29,51.53a6,6,0,0,1,2.3-1.33,1.41,1.41,0,0,0,.1.38c.23.51.78.65,1.42.28a3.43,3.43,0,0,0,1.52-2.41,3.45,3.45,0,0,1,1.95-.4c1.23.16,4.49,3.4,4.49,3.4A3.5,3.5,0,0,1,39.74,54c-.72-.62-1.49-1.35-1.49-1.35h0v7.95c0,.14-1.59,4.32-8.27,4.32V57.45s0,0,0,0h0l-.13.23-.48.81a5.18,5.18,0,0,1-2.2-1.37A60.15,60.15,0,0,1,30.29,51.53Z" class="colorfeda39 svgShape"></path><path fill="#383838" d="M30,65.07h-.1V57.83l-.45.76a.18.18,0,0,1-.14.07h0a6.41,6.41,0,0,1-2.23-1.38.15.15,0,0,1,0-.16,55.34,55.34,0,0,1,3.16-5.66,5.39,5.39,0,0,1,2.18-1.29l.15-.06.13,0v.13a1.53,1.53,0,0,0,.09.34.72.72,0,0,0,.42.4,1.09,1.09,0,0,0,.86-.16,3.34,3.34,0,0,0,1.47-2.33v0l0,0a3.59,3.59,0,0,1,2-.41c1.25.16,4.42,3.29,4.55,3.42l0,0v.06a3.63,3.63,0,0,1-2.41,2.67h0l0,0c-.51-.44-1.05-.94-1.32-1.19v7.72S36.93,65.07,30,65.07Zm.1-8.06v7.85c6.56,0,8.06-4.18,8.06-4.22V52.47l.18.15s.74.71,1.44,1.31A3.44,3.44,0,0,0,42,51.48c-.38-.37-3.28-3.19-4.4-3.33a3.34,3.34,0,0,0-1.83.36A3.59,3.59,0,0,1,34.16,51a1.26,1.26,0,0,1-1,.17.86.86,0,0,1-.54-.5,1.31,1.31,0,0,1-.09-.28l0,0a5.34,5.34,0,0,0-2.1,1.23h0a56.35,56.35,0,0,0-3.12,5.6,7.15,7.15,0,0,0,2,1.26l.58-1v0l0,0,0,0Zm-2.84.2h0Z" class="color383838 svgShape"></path><polygon fill="#383838" points="35.51 48.89 35.49 49.18 34.18 49.08 32.75 50.72 32.53 50.53 34.05 48.78 35.51 48.89" class="color383838 svgShape"></polygon><path fill="#7c8ba1" d="M36.09,55l.4-.5h0a7.45,7.45,0,0,1,.53-.58,4.45,4.45,0,0,1,.47-.41,4,4,0,0,1,.56-.38,1.34,1.34,0,0,0,.1.37c.23.51.78.65,1.42.28a3.43,3.43,0,0,0,1.52-2.41,3.82,3.82,0,0,1,1-.4,2.39,2.39,0,0,1,.53,0L43,51a9.18,9.18,0,0,0-.17,1.71,4.76,4.76,0,0,0,.84,2.94v7.94c0,.14-1.58,4.32-8.26,4.32V60.39a10.55,10.55,0,0,0,.82-3.87A6.31,6.31,0,0,0,36.09,55Z" class="color969a9f svgShape"></path><path fill="#383838" d="M35.44,68h-.09V60.36a10.37,10.37,0,0,0,.82-3.84A6.34,6.34,0,0,0,36,55l0,0,0,0,.4-.5h0a5.85,5.85,0,0,1,.53-.57,3.63,3.63,0,0,1,.47-.42,4.52,4.52,0,0,1,.58-.39l.11-.07,0,.13a1.62,1.62,0,0,0,.09.35.7.7,0,0,0,.43.41,1.09,1.09,0,0,0,.87-.17A3.32,3.32,0,0,0,41,51.38v0l0,0a4.9,4.9,0,0,1,.58-.27,2.85,2.85,0,0,1,.48-.13,2.15,2.15,0,0,1,.56,0l.39,0h.09l0,.09a9.16,9.16,0,0,0-.17,1.7,4.65,4.65,0,0,0,.83,2.88v8C43.79,64,41.86,68,35.44,68Zm.08-7.59v7.41c6.62,0,8.09-4.19,8.1-4.24v-7.9a4.83,4.83,0,0,1-.85-3,9.18,9.18,0,0,1,.16-1.63l-.29,0a2.13,2.13,0,0,0-.5,0,2.42,2.42,0,0,0-.46.13,3.82,3.82,0,0,0-.51.24,3.56,3.56,0,0,1-1.55,2.43,1.31,1.31,0,0,1-1,.18.87.87,0,0,1-.53-.5,1.43,1.43,0,0,1-.09-.27,4.37,4.37,0,0,0-.44.31c-.15.12-.31.26-.46.4s-.35.37-.52.57v0q-.18.21-.36.45a6.4,6.4,0,0,1,.16,1.48A10.4,10.4,0,0,1,35.52,60.41Z" class="color383838 svgShape"></path><path fill="#7c8ba1" d="M36.09,55a6.31,6.31,0,0,1,.17,1.5,10.55,10.55,0,0,1-.82,3.87l0,0h0l-.13.22-.48.81a5.26,5.26,0,0,1-2.2-1.36A37.87,37.87,0,0,1,36.09,55Z" class="color969a9f svgShape"></path><path fill="#383838" d="M34.75,61.59h0a6.61,6.61,0,0,1-2.22-1.38.14.14,0,0,1,0-.14A38,38,0,0,1,36,55l.11-.1,0,.15a6.68,6.68,0,0,1,.17,1.52,10.74,10.74,0,0,1-.83,3.91,0,0,0,0,0,0,0l0,0-.6,1A.14.14,0,0,1,34.75,61.59Zm-2.06-1.45a7.25,7.25,0,0,0,2.05,1.27l.58-1v0h0v0a10.28,10.28,0,0,0,.82-3.83A6.32,6.32,0,0,0,36,55.19,41.65,41.65,0,0,0,32.69,60.14Zm0,0Z" class="color383838 svgShape"></path><path fill="#ffffff" d="M37.49,53.55c.14,1.12,1,1.51,2.08.9a4.69,4.69,0,0,0,2.08-3.3v0a3.1,3.1,0,0,1,.47-.14,5.78,5.78,0,0,1-2.55,4c-1.28.74-2.37.28-2.55-1.07a4.45,4.45,0,0,1,.47-.41Z" class="colorfff svgShape"></path><path fill="#7c8ba1" d="M47.53,54.39A3.5,3.5,0,0,1,45.2,57c-.73-.62-1.5-1.36-1.5-1.36v0a4.76,4.76,0,0,1-.84-2.94A9.18,9.18,0,0,1,43,51C44.27,51.15,47.53,54.39,47.53,54.39Z" class="color969a9f svgShape"></path><path fill="#383838" d="M45.18,57.08l0,0c-.53-.45-1.08-1-1.35-1.21v.06l-.16-.2a4.85,4.85,0,0,1-.86-3A8.69,8.69,0,0,1,43,51V50.9h.09c1.25.15,4.41,3.28,4.54,3.42l0,0v0a3.6,3.6,0,0,1-2.4,2.66Zm-1.44-1.53,0,0s.75.71,1.45,1.32a3.47,3.47,0,0,0,2.21-2.47c-.35-.34-3.15-3.06-4.32-3.32A8.21,8.21,0,0,0,43,52.71,4.76,4.76,0,0,0,43.74,55.55Z" class="color383838 svgShape"></path><polygon fill="#383838" points="40.97 51.84 40.95 52.13 39.64 52.02 38.21 53.66 37.99 53.47 39.51 51.72 40.97 51.84" class="color383838 svgShape"></polygon><path fill="#383838" d="M39.06,48.5c.45-.44.91-.61,1.28-.46a.86.86,0,0,1,.47.87h-.29c0-.31-.11-.53-.29-.6s-.61,0-1,.4a2.18,2.18,0,0,0-.57,1,1.08,1.08,0,0,0,.09,1,.43.43,0,0,0,.43.11.41.41,0,0,1,.35.08.42.42,0,0,1,.15.32v.69h-.29v-.69a.12.12,0,0,0,0-.09.14.14,0,0,0-.11,0,.71.71,0,0,1-.7-.19,1.31,1.31,0,0,1-.16-1.26A2.53,2.53,0,0,1,39.06,48.5Z" class="color383838 svgShape"></path><path fill="#ffffff" d="M42.74,58.7l.4-.5h0a7.45,7.45,0,0,1,.53-.58l.47-.41a4,4,0,0,1,.56-.38,1.34,1.34,0,0,0,.1.37c.23.52.78.66,1.42.28a3.39,3.39,0,0,0,1.52-2.41,3.09,3.09,0,0,1,.56-.26,3,3,0,0,1,.47-.13,1.93,1.93,0,0,1,.53,0l.39,0a8.43,8.43,0,0,0-.18,1.71,4.76,4.76,0,0,0,.84,2.94v7.94c0,.14-1.58,4.32-8.26,4.32V64.07a10.51,10.51,0,0,0,.82-3.87A6.31,6.31,0,0,0,42.74,58.7Z" class="colorfff svgShape"></path><path fill="#383838" d="M42.09,71.69H42V64a10.37,10.37,0,0,0,.82-3.84,6.39,6.39,0,0,0-.17-1.48v0l0,0,.4-.5,0,0a7,7,0,0,1,.52-.56,4.81,4.81,0,0,1,.48-.42,5.72,5.72,0,0,1,.57-.39l.13-.08,0,.16a1.69,1.69,0,0,0,.09.34.72.72,0,0,0,.42.4,1.09,1.09,0,0,0,.86-.16,3.34,3.34,0,0,0,1.47-2.34V55l0,0a3.8,3.8,0,0,1,.58-.28,2.85,2.85,0,0,1,.48-.13,2.15,2.15,0,0,1,.56,0l.39,0h.11l0,.11a9.14,9.14,0,0,0-.17,1.69,4.65,4.65,0,0,0,.83,2.88l0,0v8S49,71.69,42.09,71.69Zm.1-7.59v7.39c6.56,0,8.06-4.18,8.06-4.23v-7.9a4.87,4.87,0,0,1-.84-3,9.13,9.13,0,0,1,.15-1.62l-.27,0a1.72,1.72,0,0,0-.5,0l-.45.12a3.82,3.82,0,0,0-.51.24,3.54,3.54,0,0,1-1.56,2.43,1.23,1.23,0,0,1-1,.18.88.88,0,0,1-.54-.51.92.92,0,0,1-.08-.25c-.15.09-.29.2-.43.3a5.72,5.72,0,0,0-.46.4c-.18.18-.35.37-.52.57l0,0c-.11.15-.23.29-.35.44A6.4,6.4,0,0,1,43,60.2,10.67,10.67,0,0,1,42.19,64.1Z" class="color383838 svgShape"></path><path fill="#ffffff" d="M42.74,58.7a6.31,6.31,0,0,1,.17,1.5,10.51,10.51,0,0,1-.82,3.87.17.17,0,0,0,0,.05h0l-.13.23-.48.8a5.26,5.26,0,0,1-2.2-1.36A37.87,37.87,0,0,1,42.74,58.7Z" class="colorfff svgShape"></path><path fill="#383838" d="M41.4 65.28h0a6.26 6.26 0 01-2.23-1.38.16.16 0 010-.15 38.66 38.66 0 013.51-5.13l.13-.11 0 .16A6.83 6.83 0 0143 60.2a10.5 10.5 0 01-.83 3.91l0 .07-.61 1A.16.16 0 0141.4 65.28zm0-.17zm-2-1.29a7.54 7.54 0 002 1.26l.6-1s0 0 0 0a10.28 10.28 0 00.82-3.83 6 6 0 00-.13-1.3A40.86 40.86 0 0039.36 63.82zm0 0zM44.14 57.23c.14 1.12 1 1.51 2.08.9a4.69 4.69 0 002.08-3.3v0a3 3 0 01.47-.13 5.74 5.74 0 01-2.55 4c-1.28.74-2.37.28-2.55-1.07l.47-.41z" class="color383838 svgShape"></path><path fill="#ffffff" d="M54.18,58.07a3.5,3.5,0,0,1-2.33,2.6c-.73-.62-1.5-1.35-1.5-1.35h0a4.76,4.76,0,0,1-.84-2.94,8.43,8.43,0,0,1,.18-1.71C50.92,54.83,54.18,58.07,54.18,58.07Z" class="colorfff svgShape"></path><path fill="#383838" d="M51.82,60.78l0,0c-.51-.44-1.05-1-1.32-1.2v.06l-.19-.22a4.86,4.86,0,0,1-.86-3,8.69,8.69,0,0,1,.18-1.73v-.09h.1c1.25.16,4.42,3.29,4.55,3.42l0,0v.05a3.65,3.65,0,0,1-2.41,2.68ZM50.4,59.22l0,0s.74.71,1.44,1.31a3.42,3.42,0,0,0,2.2-2.44c-.37-.36-3.13-3-4.3-3.31a8.84,8.84,0,0,0-.16,1.59A4.73,4.73,0,0,0,50.4,59.22Z" class="color383838 svgShape"></path><polygon fill="#383838" points="47.62 55.52 47.6 55.81 46.29 55.71 44.86 57.34 44.64 57.15 46.16 55.4 47.62 55.52" class="color383838 svgShape"></polygon><path fill="#383838" d="M33.6,45.56c.45-.45.91-.62,1.28-.46a.86.86,0,0,1,.47.86h-.29a.61.61,0,0,0-.29-.6c-.25-.1-.61,0-1,.4a2.21,2.21,0,0,0-.57,1,1.12,1.12,0,0,0,.09,1,.43.43,0,0,0,.43.1.45.45,0,0,1,.35.09.37.37,0,0,1,.15.31v.7H34v-.7a.15.15,0,0,0,0-.09.14.14,0,0,0-.11,0,.73.73,0,0,1-.7-.19A1.35,1.35,0,0,1,33,46.66,2.5,2.5,0,0,1,33.6,45.56Z" class="color383838 svgShape"></path><path fill="#383838" d="M29.82,45.29a3.28,3.28,0,0,1,3.24,0L69.35,65a7.82,7.82,0,0,1,4.08,6.88v34.16h-.72V72.33a7.83,7.83,0,0,0-4.09-6.88L32.71,45.9a2.56,2.56,0,0,0-2.59.06,2.68,2.68,0,0,0-1.24,2.28V84.36h-.73V48.25A3.41,3.41,0,0,1,29.82,45.29Z" class="color383838 svgShape"></path><path fill="#383838" d="M45.71,52.18A1.24,1.24,0,0,1,47,51.72a.87.87,0,0,1,.47.87h-.29a.6.6,0,0,0-.29-.6c-.25-.1-.61,0-1,.4a2.21,2.21,0,0,0-.57,1,1.09,1.09,0,0,0,.09,1,.45.45,0,0,0,.43.1.41.41,0,0,1,.35.08.42.42,0,0,1,.15.32v.69h-.29v-.69a.12.12,0,0,0,0-.09.14.14,0,0,0-.11,0,.73.73,0,0,1-.7-.19,1.35,1.35,0,0,1-.16-1.27A2.53,2.53,0,0,1,45.71,52.18Z" class="color383838 svgShape"></path></g></svg>